# xmcd
#
# Track frame offsets: 
#        150
#        12954
#        31942
#        46614
#        66984
#        90371
#        105096
#        122020
#        136013
#        148851
#        169801
#        184495
#        202661
#        218681
#        240431
#        260790
#
# Disc length: 3701 seconds
#
# Revision: 0
# Processed by: cddbd v1.5.1PL0 Copyright (c) Steve Scherf et al.
# Submitted via: ExactAudioCopy v0.95a4
#
DISCID=d00e7310
DTITLE=Robby Ballhause - It Ain't Her Shoes
DYEAR=1996
DGENRE=Pop
TTITLE0=It ain't her shoes
TTITLE1=Be ready
TTITLE2=Sometimes love ain't enough
TTITLE3=Perfect love
TTITLE4=Lisa stop crying
TTITLE5=First hit
TTITLE6=Never look forward
TTITLE7=Elephant dance
TTITLE8=Country boy
TTITLE9=Poor buskers song
TTITLE10=Talkin' too much
TTITLE11=Now that it's done
TTITLE12=Once started up
TTITLE13=Over the mountain
TTITLE14=Rockin' dwarfs
TTITLE15=The last to know
EXTD=
EXTT0=
EXTT1=
EXTT2=
EXTT3=
EXTT4=
EXTT5=
EXTT6=
EXTT7=
EXTT8=
EXTT9=
EXTT10=
EXTT11=
EXTT12=
EXTT13=
EXTT14=
EXTT15=
PLAYORDER=
